{"glyphs":{"32":{"x_min":0,"x_max":0,"ha":259,"o":""},"33":{"x_min":69,"x_max":299,"ha":368,"o":"m 285 -216 l 83 -216 l 69 -648 l 299 -648 l 285 -216 z m 292 0 l 76 0 l 76 -151 l 292 -151 l 292 0 z"},"34":{"x_min":88,"x_max":575,"ha":664,"o":"m 266 -324 l 111 -324 l 88 -648 l 289 -648 l 266 -324 z m 552 -324 l 396 -324 l 374 -648 l 575 -648 l 552 -324 z"},"35":{"x_min":91,"x_max":739,"ha":830,"o":"m 317 0 l 201 0 l 213 -139 l 91 -139 l 101 -255 l 223 -255 l 235 -393 l 113 -393 l 124 -509 l 245 -509 l 257 -648 l 373 -648 l 361 -509 l 466 -509 l 455 -393 l 351 -393 l 340 -255 l 443 -255 l 433 -139 l 329 -139 l 317 0 z m 571 0 l 455 0 l 511 -648 l 627 -648 l 615 -509 l 739 -509 l 728 -393 l 605 -393 l 594 -255 l 716 -255 l 706 -139 l 583 -139 l 571 0 z"},"36":{"x_min":112,"x_max":739,"ha":851,"o":"m 739 -454 l 522 -454 l 522 -519 l 361 -519 l 361 -721 l 507 -721 l 507 -648 l 609 -648 l 739 -519 l 739 -454 z m 609 0 l 522 0 l 522 -259 l 242 -259 l 112 -389 l 112 -519 l 242 -648 l 328 -648 l 328 -389 l 609 -389 l 739 -259 l 739 -129 l 609 0 z m 490 77 l 342 77 l 342 0 l 242 0 l 112 -129 l 112 -194 l 328 -194 l 328 -129 l 490 -129 l 490 77 z"},"37":{"x_min":80,"x_max":1087,"ha":1168,"o":"m 486 96 l 364 96 l 664 -712 l 786 -712 l 486 96 z m 274 -284 l 178 -284 l 80 -382 l 80 -551 l 178 -648 l 274 -648 l 274 -551 l 243 -551 l 243 -381 l 274 -381 l 274 -284 z m 405 -284 l 308 -284 l 308 -381 l 340 -381 l 340 -551 l 308 -551 l 308 -648 l 405 -648 l 502 -551 l 502 -382 l 405 -284 z m 859 0 l 763 0 l 666 -98 l 666 -267 l 763 -364 l 859 -364 l 859 -267 l 828 -267 l 828 -97 l 859 -97 l 859 0 z m 990 0 l 893 0 l 893 -97 l 925 -97 l 925 -267 l 893 -267 l 893 -364 l 990 -364 l 1087 -267 l 1087 -98 l 990 0 z"},"38":{"x_min":74,"x_max":771,"ha":813,"o":"m 759 0 l 521 0 l 139 -442 l 139 -539 l 250 -648 l 347 -648 l 347 -479 l 518 -280 l 665 -395 l 771 -271 l 626 -154 l 759 0 z m 667 -454 l 464 -454 l 464 -519 l 381 -519 l 381 -648 l 558 -648 l 667 -540 l 667 -454 z m 428 0 l 183 0 l 74 -107 l 74 -263 l 167 -359 l 268 -242 l 268 -125 l 371 -125 l 456 -24 l 428 0 z"},"39":{"x_min":88,"x_max":289,"ha":377,"o":"m 266 -324 l 111 -324 l 88 -648 l 289 -648 l 266 -324 z"},"40":{"x_min":116,"x_max":408,"ha":478,"o":"m 408 69 l 242 69 l 116 -61 l 116 -588 l 242 -717 l 408 -717 l 408 -588 l 328 -588 l 328 -61 l 408 -61 l 408 69 z"},"41":{"x_min":70,"x_max":362,"ha":478,"o":"m 236 69 l 70 69 l 70 -61 l 150 -61 l 150 -588 l 70 -588 l 70 -717 l 236 -717 l 362 -588 l 362 -61 l 236 69 z"},"42":{"x_min":79,"x_max":601,"ha":680,"o":"m 340 -331 l 234 -225 l 141 -293 l 209 -425 l 79 -492 l 113 -601 l 259 -578 l 282 -723 l 396 -723 l 418 -578 l 566 -602 l 601 -492 l 469 -425 l 538 -292 l 445 -225 l 340 -331 z"},"43":{"x_min":91,"x_max":612,"ha":703,"o":"m 411 -42 l 293 -42 l 293 -245 l 91 -245 l 91 -361 l 293 -361 l 293 -563 l 411 -563 l 411 -361 l 612 -361 l 612 -245 l 411 -245 l 411 -42 z"},"44":{"x_min":72,"x_max":288,"ha":359,"o":"m 201 129 l 72 129 l 132 0 l 72 0 l 72 -151 l 288 -151 l 288 0 l 201 129 z"},"45":{"x_min":91,"x_max":522,"ha":613,"o":"m 522 -245 l 91 -245 l 91 -361 l 522 -361 l 522 -245 z"},"46":{"x_min":72,"x_max":288,"ha":359,"o":"m 288 0 l 72 0 l 72 -151 l 288 -151 l 288 0 z"},"47":{"x_min":-39,"x_max":382,"ha":364,"o":"m 83 96 l -39 96 l 260 -692 l 382 -692 l 83 96 z"},"48":{"x_min":53,"x_max":679,"ha":732,"o":"m 550 0 l 302 0 l 302 -129 l 463 -129 l 463 -648 l 550 -648 l 679 -519 l 679 -129 l 550 0 z m 269 0 l 183 0 l 53 -129 l 53 -519 l 183 -648 l 430 -648 l 430 -519 l 269 -519 l 269 0 z"},"49":{"x_min":69,"x_max":501,"ha":570,"o":"m 393 -159 l 177 -159 l 177 -519 l 69 -519 l 69 -583 l 134 -648 l 393 -648 l 393 -159 z m 501 0 l 69 0 l 69 -129 l 501 -129 l 501 0 z"},"50":{"x_min":53,"x_max":662,"ha":715,"o":"m 269 0 l 53 0 l 53 -232 l 191 -362 l 446 -362 l 446 -648 l 533 -648 l 662 -519 l 662 -358 l 533 -229 l 269 -229 l 269 0 z m 269 -437 l 53 -437 l 53 -519 l 183 -648 l 412 -648 l 412 -531 l 269 -531 l 269 -437 z m 662 0 l 303 0 l 303 -117 l 662 -117 l 662 0 z"},"51":{"x_min":51,"x_max":677,"ha":730,"o":"m 547 0 l 461 0 l 461 -273 l 311 -273 l 311 -386 l 461 -386 l 461 -648 l 547 -648 l 677 -519 l 677 -391 l 601 -326 l 677 -260 l 677 -129 l 547 0 z m 267 -416 l 51 -416 l 51 -519 l 180 -648 l 427 -648 l 427 -510 l 267 -510 l 267 -416 z m 427 0 l 180 0 l 51 -129 l 51 -229 l 267 -229 l 267 -138 l 427 -138 l 427 0 z"},"52":{"x_min":6,"x_max":653,"ha":680,"o":"m 580 0 l 372 0 l 372 -648 l 580 -648 l 580 -217 l 653 -217 l 653 -90 l 580 -90 l 580 0 z m 338 -90 l 58 -90 l 6 -210 l 338 -604 l 338 -348 l 220 -217 l 338 -217 l 338 -90 z"},"53":{"x_min":52,"x_max":666,"ha":731,"o":"m 247 -290 l 52 -290 l 52 -648 l 636 -648 l 636 -519 l 247 -519 l 247 -290 z m 537 0 l 450 0 l 450 -290 l 281 -290 l 281 -411 l 537 -411 l 666 -281 l 666 -129 l 537 0 z m 416 0 l 182 0 l 52 -129 l 52 -202 l 269 -202 l 269 -129 l 416 -129 l 416 0 z"},"54":{"x_min":53,"x_max":679,"ha":732,"o":"m 350 0 l 183 0 l 53 -129 l 53 -519 l 183 -648 l 350 -648 l 350 -519 l 269 -519 l 269 -129 l 350 -129 l 350 0 z m 679 -471 l 463 -471 l 463 -519 l 384 -519 l 384 -648 l 550 -648 l 679 -519 l 679 -471 z m 550 0 l 384 0 l 384 -129 l 472 -129 l 472 -281 l 302 -281 l 302 -402 l 552 -402 l 679 -284 l 679 -129 l 550 0 z"},"55":{"x_min":25,"x_max":609,"ha":634,"o":"m 237 -420 l 25 -420 l 25 -583 l 89 -648 l 609 -648 l 609 -519 l 237 -519 l 237 -420 z m 397 0 l 169 0 l 386 -485 l 593 -485 l 397 0 z"},"56":{"x_min":53,"x_max":700,"ha":752,"o":"m 360 0 l 183 0 l 53 -129 l 53 -264 l 130 -328 l 53 -392 l 53 -519 l 183 -648 l 360 -648 l 360 -519 l 267 -519 l 267 -389 l 360 -389 l 360 -268 l 267 -268 l 267 -129 l 360 -129 l 360 0 z m 570 0 l 395 0 l 395 -129 l 495 -129 l 495 -268 l 395 -268 l 395 -389 l 495 -389 l 495 -519 l 395 -519 l 395 -648 l 570 -648 l 700 -519 l 700 -393 l 623 -328 l 700 -263 l 700 -129 l 570 0 z"},"57":{"x_min":53,"x_max":679,"ha":732,"o":"m 550 0 l 382 0 l 382 -129 l 463 -129 l 463 -519 l 382 -519 l 382 -648 l 550 -648 l 679 -519 l 679 -129 l 550 0 z m 430 -242 l 183 -242 l 53 -372 l 53 -519 l 183 -648 l 349 -648 l 349 -519 l 269 -519 l 269 -372 l 430 -372 l 430 -242 z m 349 0 l 183 0 l 53 -129 l 53 -173 l 269 -173 l 269 -129 l 349 -129 l 349 0 z"},"58":{"x_min":72,"x_max":288,"ha":359,"o":"m 288 -368 l 72 -368 l 72 -519 l 288 -519 l 288 -368 z m 288 0 l 72 0 l 72 -151 l 288 -151 l 288 0 z"},"59":{"x_min":72,"x_max":288,"ha":359,"o":"m 288 -368 l 72 -368 l 72 -519 l 288 -519 l 288 -368 z m 201 129 l 72 129 l 132 0 l 72 0 l 72 -151 l 288 -151 l 288 0 l 201 129 z"},"60":{"x_min":91,"x_max":612,"ha":703,"o":"m 612 -392 l 91 -256 l 91 -371 l 612 -513 l 612 -392 z m 612 -212 l 612 -91 l 117 -228 l 338 -284 l 612 -212 z"},"61":{"x_min":91,"x_max":612,"ha":703,"o":"m 612 -372 l 91 -372 l 91 -488 l 612 -488 l 612 -372 z m 612 -100 l 91 -100 l 91 -216 l 612 -216 l 612 -100 z"},"62":{"x_min":91,"x_max":612,"ha":703,"o":"m 91 -212 l 612 -348 l 612 -233 l 91 -91 l 91 -212 z m 91 -392 l 91 -513 l 585 -376 l 365 -320 l 91 -392 z"},"63":{"x_min":39,"x_max":648,"ha":687,"o":"m 426 -216 l 209 -216 l 209 -276 l 339 -406 l 432 -406 l 432 -519 l 255 -519 l 255 -454 l 39 -454 l 39 -519 l 168 -648 l 519 -648 l 648 -519 l 648 -406 l 519 -276 l 426 -276 l 426 -216 z m 426 0 l 209 0 l 209 -151 l 426 -151 l 426 0 z"},"64":{"x_min":46,"x_max":728,"ha":774,"o":"m 383 0 l 195 0 l 46 -150 l 46 -496 l 196 -648 l 374 -648 l 374 -540 l 260 -540 l 154 -433 l 154 -214 l 260 -108 l 383 -108 l 383 0 z m 728 -215 l 620 -215 l 620 -432 l 512 -540 l 400 -540 l 400 -648 l 577 -648 l 728 -496 l 728 -215 z m 577 0 l 410 0 l 410 -215 l 335 -215 l 335 -432 l 439 -432 l 439 -178 l 509 -108 l 664 -108 l 577 0 z"},"65":{"x_min":4,"x_max":728,"ha":732,"o":"m 728 0 l 510 0 l 482 -71 l 271 -71 l 315 -199 l 433 -199 l 259 -648 l 470 -648 l 728 0 z m 213 0 l 4 0 l 236 -619 l 332 -361 l 213 0 z"},"66":{"x_min":57,"x_max":688,"ha":730,"o":"m 558 0 l 307 0 l 307 -129 l 467 -129 l 467 -268 l 307 -268 l 307 -380 l 467 -380 l 467 -519 l 307 -519 l 307 -648 l 558 -648 l 688 -519 l 688 -387 l 623 -322 l 688 -257 l 688 -129 l 558 0 z m 273 0 l 57 0 l 57 -648 l 273 -648 l 273 0 z"},"67":{"x_min":47,"x_max":657,"ha":703,"o":"m 263 0 l 177 0 l 47 -129 l 47 -519 l 177 -648 l 263 -648 l 263 0 z m 657 -388 l 441 -388 l 441 -519 l 297 -519 l 297 -648 l 527 -648 l 657 -519 l 657 -388 z m 527 0 l 297 0 l 297 -129 l 441 -129 l 441 -224 l 657 -224 l 657 -129 l 527 0 z"},"68":{"x_min":57,"x_max":684,"ha":726,"o":"m 554 0 l 307 0 l 307 -129 l 467 -129 l 467 -519 l 307 -519 l 307 -648 l 554 -648 l 684 -519 l 684 -129 l 554 0 z m 273 0 l 57 0 l 57 -648 l 273 -648 l 273 0 z"},"69":{"x_min":57,"x_max":645,"ha":691,"o":"m 273 0 l 57 0 l 57 -648 l 273 -648 l 273 -391 l 479 -391 l 479 -266 l 273 -266 l 273 0 z m 645 -460 l 441 -460 l 441 -522 l 307 -522 l 307 -648 l 645 -648 l 645 -460 z m 645 0 l 307 0 l 307 -129 l 429 -129 l 429 -194 l 645 -194 l 645 0 z"},"70":{"x_min":57,"x_max":636,"ha":649,"o":"m 273 0 l 57 0 l 57 -648 l 273 -648 l 273 -358 l 472 -358 l 472 -231 l 273 -231 l 273 0 z m 636 -433 l 420 -433 l 420 -519 l 307 -519 l 307 -648 l 636 -648 l 636 -433 z"},"71":{"x_min":56,"x_max":683,"ha":730,"o":"m 457 0 l 186 0 l 56 -129 l 56 -519 l 186 -648 l 272 -648 l 272 -129 l 457 -129 l 457 0 z m 683 -454 l 467 -454 l 467 -519 l 306 -519 l 306 -648 l 569 -648 l 683 -519 l 683 -454 z m 683 0 l 491 0 l 491 -231 l 386 -231 l 386 -359 l 683 -359 l 683 0 z"},"72":{"x_min":57,"x_max":684,"ha":740,"o":"m 684 0 l 467 0 l 467 -263 l 307 -263 l 307 -393 l 466 -393 l 466 -648 l 684 -648 l 684 0 z m 273 0 l 57 0 l 57 -648 l 273 -648 l 273 0 z"},"73":{"x_min":47,"x_max":393,"ha":440,"o":"m 393 0 l 47 0 l 47 -138 l 112 -138 l 112 -510 l 47 -510 l 47 -648 l 393 -648 l 393 -510 l 328 -510 l 328 -138 l 393 -138 l 393 0 z"},"74":{"x_min":25,"x_max":618,"ha":668,"o":"m 488 0 l 402 0 l 402 -507 l 104 -507 l 104 -648 l 618 -648 l 618 -129 l 488 0 z m 368 0 l 155 0 l 25 -129 l 25 -271 l 250 -271 l 250 -129 l 368 -129 l 368 0 z"},"75":{"x_min":57,"x_max":692,"ha":669,"o":"m 682 -648 l 306 -92 l 306 -407 l 458 -648 l 682 -648 z m 273 0 l 57 0 l 57 -648 l 273 -648 l 273 0 z m 692 0 l 459 0 l 386 -151 l 514 -343 l 692 0 z"},"76":{"x_min":57,"x_max":610,"ha":622,"o":"m 273 0 l 57 0 l 57 -648 l 273 -648 l 273 0 z m 610 0 l 307 0 l 307 -129 l 414 -129 l 414 -211 l 610 -211 l 610 0 z"},"77":{"x_min":57,"x_max":845,"ha":902,"o":"m 598 -268 l 442 0 l 58 -648 l 287 -648 l 461 -360 l 598 -594 l 598 -268 z m 845 0 l 629 0 l 629 -648 l 845 -648 l 845 0 z m 259 0 l 57 0 l 57 -588 l 259 -250 l 259 0 z"},"78":{"x_min":57,"x_max":679,"ha":736,"o":"m 679 0 l 450 0 l 57 -648 l 285 -648 l 679 0 z m 679 -648 l 679 -62 l 491 -371 l 491 -648 l 679 -648 z m 245 0 l 57 0 l 57 -586 l 245 -278 l 245 0 z"},"79":{"x_min":42,"x_max":672,"ha":714,"o":"m 541 0 l 374 0 l 374 -132 l 456 -132 l 456 -517 l 374 -517 l 374 -648 l 541 -648 l 672 -519 l 672 -129 l 541 0 z m 339 0 l 173 0 l 42 -129 l 42 -519 l 173 -648 l 339 -648 l 339 -517 l 258 -517 l 258 -132 l 339 -132 l 339 0 z"},"80":{"x_min":57,"x_max":675,"ha":713,"o":"m 545 -167 l 303 -167 l 303 -296 l 460 -296 l 460 -519 l 303 -519 l 303 -648 l 545 -648 l 675 -519 l 675 -296 l 545 -167 z m 269 0 l 57 0 l 57 -648 l 269 -648 l 269 0 z"},"81":{"x_min":42,"x_max":668,"ha":711,"o":"m 639 69 l 523 182 l 333 0 l 172 0 l 42 -129 l 42 -519 l 172 -648 l 338 -648 l 338 -519 l 258 -519 l 258 -129 l 429 -129 l 639 69 z m 668 -129 l 575 -35 l 453 -148 l 453 -519 l 372 -519 l 372 -648 l 539 -648 l 668 -519 l 668 -129 z"},"82":{"x_min":57,"x_max":706,"ha":726,"o":"m 383 -194 l 307 -194 l 307 -320 l 469 -320 l 469 -519 l 307 -519 l 307 -648 l 554 -648 l 684 -519 l 684 -324 l 583 -224 l 706 0 l 475 0 l 383 -194 z m 273 0 l 57 0 l 57 -648 l 273 -648 l 273 0 z"},"83":{"x_min":47,"x_max":674,"ha":721,"o":"m 544 0 l 458 0 l 458 -243 l 177 -243 l 47 -373 l 47 -519 l 177 -648 l 250 -648 l 250 -418 l 548 -418 l 674 -288 l 674 -129 l 544 0 z m 656 -466 l 458 -466 l 458 -531 l 285 -531 l 285 -648 l 544 -648 l 656 -535 l 656 -466 z m 423 0 l 156 0 l 47 -129 l 47 -194 l 263 -194 l 263 -117 l 423 -117 l 423 0 z"},"84":{"x_min":25,"x_max":588,"ha":613,"o":"m 588 -507 l 25 -507 l 25 -648 l 588 -648 l 588 -507 z m 419 0 l 194 0 l 194 -473 l 419 -473 l 419 0 z"},"85":{"x_min":52,"x_max":678,"ha":729,"o":"m 548 0 l 382 0 l 382 -129 l 462 -129 l 462 -648 l 678 -648 l 678 -129 l 548 0 z m 348 0 l 182 0 l 52 -129 l 52 -648 l 268 -648 l 268 -129 l 348 -129 l 348 0 z"},"86":{"x_min":-13,"x_max":682,"ha":669,"o":"m 432 0 l 222 0 l -13 -648 l 208 -648 l 432 0 z m 682 -648 l 458 -20 l 361 -305 l 465 -648 l 682 -648 z"},"87":{"x_min":-13,"x_max":954,"ha":941,"o":"m 377 0 l 181 0 l -13 -648 l 202 -648 l 297 -292 l 362 -564 l 447 -256 l 377 0 z m 755 0 l 549 0 l 372 -648 l 589 -648 l 755 0 z m 954 -648 l 778 -34 l 690 -379 l 757 -648 l 954 -648 z"},"88":{"x_min":-13,"x_max":668,"ha":655,"o":"m 668 0 l 433 0 l 0 -648 l 233 -648 l 668 0 z m 659 -648 l 467 -355 l 352 -523 l 427 -648 l 659 -648 z m 234 0 l -13 0 l 194 -302 l 310 -126 l 234 0 z"},"89":{"x_min":-13,"x_max":646,"ha":633,"o":"m 423 0 l 207 0 l 207 -206 l -13 -648 l 199 -648 l 423 -191 l 423 0 z m 646 -648 l 437 -236 l 332 -449 l 438 -648 l 646 -648 z"},"90":{"x_min":25,"x_max":595,"ha":621,"o":"m 167 0 l 25 0 l 25 -121 l 449 -648 l 595 -648 l 595 -522 l 167 0 z m 284 -506 l 39 -506 l 39 -648 l 406 -648 l 284 -506 z m 586 0 l 211 0 l 334 -142 l 586 -142 l 586 0 z"},"91":{"x_min":134,"x_max":408,"ha":478,"o":"m 408 69 l 134 69 l 134 -717 l 408 -717 l 408 -588 l 328 -588 l 328 -61 l 408 -61 l 408 69 z"},"92":{"x_min":-17,"x_max":404,"ha":364,"o":"m 404 96 l 282 96 l -17 -692 l 105 -692 l 404 96 z"},"93":{"x_min":69,"x_max":344,"ha":478,"o":"m 344 69 l 69 69 l 69 -61 l 149 -61 l 149 -588 l 69 -588 l 69 -717 l 344 -717 l 344 69 z"},"94":{"x_min":85,"x_max":545,"ha":630,"o":"m 545 -49 l 415 -49 l 261 -570 l 376 -570 l 545 -49 z m 215 -49 l 85 -49 l 232 -543 l 292 -333 l 215 -49 z"},"95":{"x_min":-42,"x_max":692,"ha":650,"o":"m 692 192 l -42 192 l -42 98 l 692 98 l 692 192 z"},"96":{"x_min":59,"x_max":386,"ha":536,"o":"m 386 -630 l 356 -559 l 85 -640 l 59 -743 l 149 -785 l 386 -630 z"},"97":{"x_min":42,"x_max":604,"ha":650,"o":"m 604 0 l 393 0 l 393 -389 l 85 -389 l 85 -454 l 150 -519 l 474 -519 l 604 -389 l 604 0 z m 294 0 l 129 0 l 42 -85 l 42 -215 l 129 -302 l 358 -302 l 358 -212 l 247 -212 l 247 -121 l 358 -121 l 358 -64 l 294 0 z"},"98":{"x_min":51,"x_max":612,"ha":659,"o":"m 267 0 l 51 0 l 51 -716 l 267 -716 l 267 0 z m 482 0 l 301 0 l 301 -121 l 397 -121 l 397 -389 l 301 -389 l 301 -455 l 364 -519 l 482 -519 l 612 -389 l 612 -129 l 482 0 z"},"99":{"x_min":46,"x_max":608,"ha":646,"o":"m 262 0 l 176 0 l 46 -129 l 46 -389 l 176 -519 l 262 -519 l 262 0 z m 608 -312 l 392 -312 l 392 -389 l 296 -389 l 296 -519 l 479 -519 l 608 -389 l 608 -312 z m 479 0 l 296 0 l 296 -121 l 392 -121 l 392 -186 l 608 -186 l 608 -129 l 479 0 z"},"100":{"x_min":46,"x_max":616,"ha":667,"o":"m 616 0 l 400 0 l 400 -716 l 616 -716 l 616 0 z m 315 0 l 163 0 l 46 -117 l 46 -402 l 163 -519 l 366 -519 l 366 -389 l 262 -389 l 262 -121 l 366 -121 l 366 -51 l 315 0 z"},"101":{"x_min":46,"x_max":609,"ha":650,"o":"m 262 0 l 176 0 l 46 -129 l 46 -389 l 176 -519 l 262 -519 l 262 0 z m 609 -208 l 296 -208 l 296 -298 l 410 -298 l 410 -389 l 296 -389 l 296 -519 l 479 -519 l 609 -389 l 609 -208 z m 522 0 l 296 0 l 296 -121 l 586 -121 l 586 -65 l 522 0 z"},"102":{"x_min":19,"x_max":442,"ha":443,"o":"m 286 0 l 70 0 l 70 -389 l 19 -389 l 19 -519 l 70 -519 l 70 -595 l 200 -716 l 442 -716 l 442 -587 l 286 -587 l 286 0 z m 442 -389 l 319 -389 l 320 -519 l 442 -519 l 442 -389 z"},"103":{"x_min":46,"x_max":608,"ha":654,"o":"m 479 182 l 194 182 l 129 116 l 129 68 l 392 68 l 392 -389 l 296 -389 l 296 -519 l 479 -519 l 608 -389 l 608 51 l 479 182 z m 293 0 l 176 0 l 46 -129 l 46 -389 l 176 -519 l 262 -519 l 262 -121 l 358 -121 l 358 -64 l 293 0 z"},"104":{"x_min":51,"x_max":612,"ha":662,"o":"m 267 0 l 51 0 l 51 -716 l 267 -716 l 267 0 z m 612 0 l 396 0 l 396 -389 l 301 -389 l 301 -455 l 364 -519 l 482 -519 l 612 -389 l 612 0 z"},"105":{"x_min":51,"x_max":268,"ha":319,"o":"m 268 -583 l 51 -583 l 51 -721 l 268 -721 l 268 -583 z m 268 0 l 51 0 l 51 -519 l 268 -519 l 268 0 z"},"106":{"x_min":-49,"x_max":268,"ha":319,"o":"m 267 -583 l 51 -583 l 51 -721 l 267 -721 l 267 -583 z m 138 173 l -49 173 l -49 43 l 51 43 l 51 -519 l 268 -519 l 268 43 l 138 173 z"},"107":{"x_min":51,"x_max":634,"ha":641,"o":"m 267 0 l 51 0 l 51 -716 l 267 -716 l 267 0 z m 623 -519 l 300 -73 l 300 -369 l 400 -519 l 623 -519 z m 634 0 l 400 0 l 364 -104 l 492 -276 l 634 0 z"},"108":{"x_min":51,"x_max":363,"ha":368,"o":"m 363 0 l 172 0 l 51 -121 l 51 -716 l 267 -716 l 267 -129 l 363 -129 l 363 0 z"},"109":{"x_min":51,"x_max":943,"ha":993,"o":"m 605 0 l 389 0 l 389 -389 l 301 -389 l 301 -450 l 369 -519 l 536 -519 l 605 -449 l 605 0 z m 267 0 l 51 0 l 51 -519 l 267 -519 l 267 0 z m 943 0 l 728 0 l 728 -389 l 640 -389 l 640 -449 l 706 -519 l 838 -519 l 943 -412 l 943 0 z"},"110":{"x_min":51,"x_max":613,"ha":662,"o":"m 613 0 l 396 0 l 396 -389 l 304 -389 l 304 -446 l 376 -519 l 496 -519 l 613 -402 l 613 0 z m 269 0 l 51 0 l 51 -519 l 269 -519 l 269 0 z"},"111":{"x_min":46,"x_max":629,"ha":675,"o":"m 321 0 l 176 0 l 46 -129 l 46 -389 l 176 -519 l 321 -519 l 321 -389 l 265 -389 l 265 -121 l 321 -121 l 321 0 z m 500 0 l 355 0 l 355 -121 l 409 -121 l 409 -389 l 355 -389 l 355 -519 l 500 -519 l 629 -389 l 629 -129 l 500 0 z"},"112":{"x_min":51,"x_max":612,"ha":659,"o":"m 482 0 l 301 0 l 301 -121 l 396 -121 l 396 -389 l 301 -389 l 301 -455 l 364 -519 l 482 -519 l 612 -389 l 612 -129 l 482 0 z m 267 173 l 51 173 l 51 -519 l 267 -519 l 267 173 z"},"113":{"x_min":46,"x_max":608,"ha":659,"o":"m 608 173 l 456 173 l 393 108 l 393 -389 l 296 -389 l 296 -519 l 479 -519 l 608 -389 l 608 173 z m 294 0 l 176 0 l 46 -129 l 46 -389 l 176 -519 l 262 -519 l 262 -121 l 358 -121 l 358 -64 l 294 0 z"},"114":{"x_min":51,"x_max":609,"ha":615,"o":"m 267 0 l 51 0 l 51 -519 l 267 -519 l 267 0 z m 609 -263 l 393 -263 l 393 -389 l 301 -389 l 301 -446 l 374 -519 l 504 -519 l 609 -397 l 609 -263 z"},"115":{"x_min":46,"x_max":608,"ha":642,"o":"m 488 0 l 393 0 l 393 -196 l 159 -196 l 47 -304 l 47 -402 l 164 -519 l 250 -519 l 250 -335 l 496 -335 l 608 -222 l 608 -121 l 488 0 z m 591 -383 l 393 -383 l 393 -423 l 284 -423 l 284 -519 l 514 -519 l 591 -441 l 591 -383 z m 358 0 l 136 0 l 46 -107 l 46 -148 l 263 -148 l 263 -95 l 358 -95 l 358 0 z"},"116":{"x_min":19,"x_max":428,"ha":455,"o":"m 420 0 l 191 0 l 62 -129 l 62 -389 l 19 -389 l 19 -519 l 62 -519 l 62 -575 l 277 -648 l 277 -129 l 420 -129 l 420 0 z m 428 -389 l 312 -389 l 312 -519 l 428 -519 l 428 -389 z"},"117":{"x_min":46,"x_max":608,"ha":659,"o":"m 296 0 l 176 0 l 46 -129 l 46 -519 l 262 -519 l 262 -129 l 358 -129 l 358 -65 l 296 0 z m 608 0 l 393 0 l 393 -519 l 608 -519 l 608 0 z"},"118":{"x_min":-7,"x_max":589,"ha":582,"o":"m 392 0 l 187 0 l -7 -519 l 208 -519 l 392 0 z m 589 -519 l 414 -29 l 317 -303 l 387 -519 l 589 -519 z"},"119":{"x_min":-7,"x_max":908,"ha":901,"o":"m 360 0 l 179 0 l -7 -519 l 199 -519 l 284 -249 l 344 -436 l 421 -197 l 360 0 z m 717 0 l 521 0 l 347 -519 l 550 -519 l 717 0 z m 908 -519 l 739 -32 l 648 -312 l 706 -519 l 908 -519 z"},"120":{"x_min":-7,"x_max":563,"ha":557,"o":"m 563 0 l 339 0 l -7 -519 l 218 -519 l 563 0 z m 563 -519 l 414 -279 l 302 -447 l 339 -519 l 563 -519 z m 218 0 l -7 0 l 137 -247 l 253 -73 l 218 0 z"},"121":{"x_min":-7,"x_max":603,"ha":596,"o":"m 340 181 l 133 181 l 396 -519 l 603 -519 l 340 181 z m 281 -308 l 185 -43 l -7 -519 l 208 -519 l 281 -308 z"},"122":{"x_min":44,"x_max":530,"ha":572,"o":"m 188 0 l 44 0 l 44 -125 l 381 -519 l 530 -519 l 530 -389 l 188 0 z m 229 -389 l 49 -389 l 49 -519 l 340 -519 l 229 -389 z m 530 0 l 229 0 l 343 -129 l 530 -129 l 530 0 z"},"123":{"x_min":42,"x_max":404,"ha":478,"o":"m 404 69 l 242 69 l 112 -61 l 112 -249 l 42 -324 l 112 -399 l 112 -588 l 242 -717 l 404 -717 l 404 -588 l 324 -588 l 324 -399 l 254 -334 l 324 -249 l 324 -61 l 404 -61 l 404 69 z"},"124":{"x_min":112,"x_max":229,"ha":342,"o":"m 229 96 l 112 96 l 112 -692 l 229 -692 l 229 96 z"},"125":{"x_min":73,"x_max":435,"ha":478,"o":"m 235 69 l 73 69 l 73 -61 l 153 -61 l 153 -249 l 223 -334 l 153 -399 l 153 -588 l 73 -588 l 73 -717 l 235 -717 l 365 -588 l 365 -399 l 435 -324 l 365 -249 l 365 -61 l 235 69 z"},"126":{"x_min":55,"x_max":677,"ha":728,"o":"m 563 -164 l 366 -164 l 252 -278 l 200 -278 l 98 -208 l 55 -250 l 171 -394 l 366 -394 l 482 -278 l 533 -278 l 634 -351 l 677 -307 l 563 -164 z"}}}
